<svg width="21" height="21" viewBox="0 0 21 21" fill="none" xmlns="http://www.w3.org/2000/svg">
<path d="M8.58644 2.29548C9.16127 0.404334 11.8387 0.404332 12.4136 2.29548L13.3243 5.29187C13.5804 6.13435 14.3574 6.71024 15.2379 6.71024H18.4546C20.3596 6.71024 21.1859 9.12129 19.6813 10.2898L16.8545 12.4853C16.1998 12.9937 15.9267 13.8533 16.1677 14.6465L17.1926 18.0181C17.7598 19.8845 15.5928 21.3758 14.0522 20.1793L11.7268 18.3732C11.005 17.8127 9.99502 17.8127 9.27323 18.3732L6.94777 20.1793C5.40716 21.3758 3.24015 19.8845 3.80744 18.0181L4.83228 14.6465C5.07335 13.8533 4.80018 12.9937 4.14549 12.4853L1.31867 10.2898C-0.185882 9.12129 0.640423 6.71024 2.54544 6.71024H5.76211C6.64264 6.71024 7.41959 6.13435 7.67567 5.29188L8.58644 2.29548Z" fill="#FFDCCC"/>
</svg>
